
<svg xmlns="http://www.w3.org/2000/svg" width="48" height="48" viewBox="0 0 48 48" fill="none">
  <rect width="48" height="48" rx="10" fill="#8a4a2f"></rect>
  <g transform="translate(12 12)" stroke="#fdfaf6" stroke-width="1.6" stroke-linecap="round" stroke-linejoin="round" fill="none">
    <path d="M17 21a1 1 0 0 0 1-1v-5.35c0-.457.316-.844.727-1.041a4 4 0 0 0-2.134-7.589 5 5 0 0 0-9.186 0 4 4 0 0 0-2.134 7.588c.411.198.727.585.727 1.041V20a1 1 0 0 0 1 1Z"></path>
    <path d="M6 17h12"></path>
  </g>
</svg>